<svg width="300" height="204" viewBox="0 0 300 204" fill="none" xmlns="http://www.w3.org/2000/svg">
<path d="M145 2C141.958 50.0579 131.188 96.6296 121.889 143.778C121.263 146.951 111.296 202 114 202" stroke="white" stroke-width="3" stroke-linecap="round"/>
<path d="M277 61C271.877 68.3993 264.024 74.6949 256.611 79.5556C227.178 98.8558 192.65 112.473 157.5 115.333C134.776 117.182 115.398 117.091 92.4444 116.333C70.8006 115.619 45.7658 115.626 24.7778 108.556C11.9981 104.25 1.12509 93.192 1.66666 79.1111C2.01442 70.0695 8.65789 65.7101 17.1667 65.0556C52.7934 62.315 88.9889 83.5921 119.722 98.2778C179.887 127.027 238.368 159.184 298 189" stroke="white" stroke-width="3" stroke-linecap="round"/>
</svg>
